<svg width="380" height="121" viewBox="0 0 380 121" fill="none" xmlns="http://www.w3.org/2000/svg">
<path d="M249.078 12H247.03V0.303955H251.494C254.15 0.303955 255.702 1.64795 255.702 3.95195C255.702 5.51995 254.966 6.63996 253.59 7.19995L255.814 12H253.574L251.59 7.63196H249.078V12ZM249.078 2.12795V5.82395H251.494C252.79 5.82395 253.558 5.13595 253.558 3.95195C253.558 2.78395 252.79 2.12795 251.494 2.12795H249.078Z" fill="white"/>
<path d="M244.81 12H237.546V0.303955H244.81V2.19195H239.594V5.19995H244.266V7.00795H239.594V10.112H244.81V12Z" fill="white"/>
<path d="M229.666 2.032C227.346 2.032 226.018 3.712 226.018 6.24C226.018 8.848 227.522 10.272 229.682 10.272C231.714 10.272 232.946 9.152 232.946 7.28V7.232H229.41V5.424H234.85V12H233.122L232.994 10.656C232.354 11.552 231.026 12.176 229.442 12.176C226.162 12.176 223.874 9.792 223.874 6.192C223.874 2.64 226.194 0.112 229.714 0.112C232.386 0.112 234.45 1.664 234.786 4.048H232.626C232.258 2.672 231.074 2.032 229.666 2.032Z" fill="white"/>
<path d="M214.437 12H212.421V0.303955H214.453L219.941 8.59196V0.303955H221.957V12H219.941L214.437 3.71196V12Z" fill="white"/>
<path d="M210.201 12H202.937V0.303955H210.201V2.19195H204.985V5.19995H209.657V7.00795H204.985V10.112H210.201V12Z" fill="white"/>
<path d="M192.796 3.56801C192.796 1.52001 194.492 0.0960083 196.956 0.0960083C199.324 0.0960083 200.828 1.40801 200.892 3.52001H198.844C198.796 2.51201 198.076 1.92001 196.924 1.92001C195.66 1.92001 194.844 2.52801 194.844 3.50401C194.844 4.33601 195.292 4.80001 196.268 5.02401L198.108 5.42401C200.108 5.85601 201.084 6.88001 201.084 8.62401C201.084 10.8 199.388 12.208 196.812 12.208C194.316 12.208 192.684 10.88 192.636 8.78401H194.684C194.7 9.77601 195.5 10.368 196.812 10.368C198.172 10.368 199.036 9.77601 199.036 8.80001C199.036 8.01601 198.636 7.55201 197.676 7.34401L195.82 6.92801C193.836 6.49601 192.796 5.36001 192.796 3.56801Z" fill="white"/>
<path d="M183.218 3.56801C183.218 1.52001 184.914 0.0960083 187.378 0.0960083C189.746 0.0960083 191.25 1.40801 191.314 3.52001H189.266C189.218 2.51201 188.498 1.92001 187.346 1.92001C186.082 1.92001 185.266 2.52801 185.266 3.50401C185.266 4.33601 185.714 4.80001 186.69 5.02401L188.53 5.42401C190.53 5.85601 191.506 6.88001 191.506 8.62401C191.506 10.8 189.81 12.208 187.234 12.208C184.738 12.208 183.106 10.88 183.058 8.78401H185.106C185.122 9.77601 185.922 10.368 187.234 10.368C188.594 10.368 189.458 9.77601 189.458 8.80001C189.458 8.01601 189.058 7.55201 188.098 7.34401L186.242 6.92801C184.258 6.49601 183.218 5.36001 183.218 3.56801Z" fill="white"/>
<path d="M174.007 12H171.879L176.103 0.303955H178.199L182.423 12H180.263L179.319 9.29595H174.951L174.007 12ZM176.887 3.79195L175.559 7.56796H178.727L177.383 3.79195C177.287 3.48796 177.175 3.13595 177.143 2.89596C177.095 3.11996 176.999 3.47195 176.887 3.79195Z" fill="white"/>
<path d="M168.029 7.96796H165.453V12H163.405V0.303955H168.029C170.381 0.303955 171.901 1.83995 171.901 4.12796C171.901 6.38396 170.365 7.96796 168.029 7.96796ZM167.629 2.12795H165.453V6.14395H167.597C169.005 6.14395 169.757 5.39195 169.757 4.11195C169.757 2.83195 168.989 2.12795 167.629 2.12795Z" fill="white"/>
<path d="M156.872 12H149.608V0.303955H156.872V2.19195H151.656V5.19995H156.328V7.00795H151.656V10.112H156.872V12Z" fill="white"/>
<path d="M139.781 12H137.733V0.303955H139.781V5.13595H144.965V0.303955H147.013V12H144.965V7.03996H139.781V12Z" fill="white"/>
<path d="M127.272 2.19195V0.303955H136.168V2.19195H132.744V12H130.696V2.19195H127.272Z" fill="white"/>
<rect y="48" width="380" height="9" rx="4.5" fill="#979797"/>
<rect y="48" width="127" height="9" rx="4.5" fill="white"/>
<path d="M0.688 28.176C0.688 24.544 2.64 22.08 5.632 22.08C8.624 22.08 10.592 24.544 10.592 28.176C10.592 31.792 8.736 34.208 5.632 34.208C2.528 34.208 0.688 31.792 0.688 28.176ZM2.704 28.176C2.704 30.88 3.792 32.4 5.632 32.4C7.488 32.4 8.576 30.88 8.576 28.176C8.576 25.408 7.488 23.888 5.632 23.888C3.792 23.888 2.704 25.408 2.704 28.176ZM13.7613 28.368C13.0573 28.368 12.4653 27.792 12.4653 27.104C12.4653 26.4 13.0573 25.824 13.7613 25.824C14.4653 25.824 15.0573 26.4 15.0573 27.104C15.0573 27.792 14.4653 28.368 13.7613 28.368ZM13.7613 34.192C13.0573 34.192 12.4653 33.616 12.4653 32.928C12.4653 32.224 13.0573 31.648 13.7613 31.648C14.4653 31.648 15.0573 32.224 15.0573 32.928C15.0573 33.616 14.4653 34.192 13.7613 34.192ZM20.97 34.192C18.522 34.192 16.906 32.624 16.906 30.256H18.938C18.938 31.584 19.722 32.368 21.018 32.368C22.394 32.368 23.274 31.472 23.274 30.048C23.274 28.688 22.458 27.76 21.05 27.76C20.154 27.76 19.338 28.208 18.922 28.816L17.114 28.432L18.554 22.304H24.65V24.192H20.026L19.402 26.624C19.962 26.256 20.666 26.048 21.466 26.048C23.802 26.048 25.354 27.632 25.354 29.936C25.354 32.464 23.578 34.192 20.97 34.192ZM34.4574 33.984L26.3454 34V32.464L30.1694 29.232C31.7534 27.888 32.2814 27.12 32.2814 26C32.2814 24.672 31.5614 23.92 30.3294 23.92C29.0494 23.92 28.2494 24.816 28.2334 26.32H26.2014C26.2174 23.76 27.8494 22.096 30.3294 22.096C32.8254 22.096 34.3774 23.52 34.3774 25.888C34.3774 27.52 33.4814 28.752 31.7054 30.272L29.5934 32.08H34.4574V33.984Z" fill="white"/>
<path d="M331.992 30.592V28.864H337.144V30.592H331.992ZM338.813 28.176C338.813 24.544 340.765 22.08 343.757 22.08C346.749 22.08 348.717 24.544 348.717 28.176C348.717 31.792 346.861 34.208 343.757 34.208C340.653 34.208 338.813 31.792 338.813 28.176ZM340.829 28.176C340.829 30.88 341.917 32.4 343.757 32.4C345.613 32.4 346.701 30.88 346.701 28.176C346.701 25.408 345.613 23.888 343.757 23.888C341.917 23.888 340.829 25.408 340.829 28.176ZM352.51 24.144H349.95V22.304H354.478V34H352.51V24.144ZM358.261 28.368C357.557 28.368 356.965 27.792 356.965 27.104C356.965 26.4 357.557 25.824 358.261 25.824C358.965 25.824 359.557 26.4 359.557 27.104C359.557 27.792 358.965 28.368 358.261 28.368ZM358.261 34.192C357.557 34.192 356.965 33.616 356.965 32.928C356.965 32.224 357.557 31.648 358.261 31.648C358.965 31.648 359.557 32.224 359.557 32.928C359.557 33.616 358.965 34.192 358.261 34.192ZM369.598 33.984L361.486 34V32.464L365.31 29.232C366.894 27.888 367.422 27.12 367.422 26C367.422 24.672 366.702 23.92 365.47 23.92C364.19 23.92 363.39 24.816 363.374 26.32H361.342C361.358 23.76 362.99 22.096 365.47 22.096C367.966 22.096 369.518 23.52 369.518 25.888C369.518 27.52 368.622 28.752 366.846 30.272L364.734 32.08H369.598V33.984ZM379.129 33.984L371.017 34V32.464L374.841 29.232C376.425 27.888 376.953 27.12 376.953 26C376.953 24.672 376.233 23.92 375.001 23.92C373.721 23.92 372.921 24.816 372.905 26.32H370.873C370.889 23.76 372.521 22.096 375.001 22.096C377.497 22.096 379.049 23.52 379.049 25.888C379.049 27.52 378.153 28.752 376.377 30.272L374.265 32.08H379.129V33.984Z" fill="white"/>
<circle opacity="0.74" cx="190" cy="95" r="26" fill="#2A2A2A"/>
<path d="M200.947 93.0622L185.232 83.3079C183.955 82.5157 182 83.2844 182 85.2437V104.748C182 106.505 183.817 107.565 185.232 106.683L200.947 96.9339C202.349 96.0667 202.353 93.9293 200.947 93.0622Z" fill="white"/>
</svg>
