<svg width="183" height="23" viewBox="0 0 183 23" fill="none" xmlns="http://www.w3.org/2000/svg">
<path d="M158.665 7.01819H165.625L171.386 17.4285L176.298 7.01819H182.147L174.515 21.9318H168.14L162.028 11.0244L155.916 21.9318H149.571L142.465 7.01819H148.226L153.021 17.37L158.665 7.01819Z" fill="white"/>
<path d="M116.471 14.4458C116.471 9.00667 120.711 6.57955 129.542 6.57955C138.344 6.57955 142.613 9.00667 142.613 14.4458C142.613 19.8849 138.344 22.312 129.542 22.312C120.711 22.312 116.471 19.8849 116.471 14.4458ZM121.998 14.4458C121.998 16.7559 123.577 17.6624 129.542 17.6624C135.508 17.6624 137.087 16.7559 137.087 14.4458C137.087 12.1356 135.508 11.2291 129.542 11.2291C123.577 11.2291 121.998 12.1356 121.998 14.4458Z" fill="white"/>
<path d="M113.901 0V21.9319H108.374V0H113.901Z" fill="white"/>
<path d="M89.8406 21.9318V7.01819H94.6949L95.1335 9.56228C98.1747 7.98319 101.976 6.63804 106.099 6.63804V11.6093C101.918 11.6093 98.7888 12.1064 95.3675 13.3346V21.9318H89.8406Z" fill="white"/>
<path d="M86.8778 7.69077L86.8486 7.72002H86.8778V21.9319H82.0235L81.6141 19.9434C78.6899 21.2008 75.2393 22.2243 71.6717 22.2243C66.3788 22.2243 62.8405 20.1773 62.8405 14.6212C62.8405 8.62653 67.4316 6.72577 74.1281 6.72577C79.2747 6.72577 83.5734 7.25214 86.8778 7.69077ZM68.3673 14.4165C68.3673 16.7852 69.5662 17.6625 72.7537 17.6625C75.2978 17.6625 78.222 17.1068 81.351 16.2003V11.5508C78.8946 11.3168 76.0288 11.1706 73.5725 11.1706C70.1219 11.1706 68.3673 12.0771 68.3673 14.4165Z" fill="white"/>
<path d="M54.0654 21.9319H31.8412V1.98849H54.0362C58.0424 1.98849 60.2063 3.45062 60.2063 6.87198C60.2063 9.35759 59.0659 10.849 56.8435 11.4338C59.5338 12.0479 60.9374 13.5978 60.9374 16.6097C60.9374 20.4112 58.6273 21.9319 54.0654 21.9319ZM52.3694 6.46259H37.6897V9.97169H52.5156C53.8315 9.97169 54.7088 9.44532 54.7088 8.21714C54.7088 6.98895 54.0069 6.46259 52.3694 6.46259ZM53.0127 14.1534H37.6897V17.8087H52.8665C54.6503 17.8087 55.4398 17.3993 55.4398 15.9664C55.4398 14.5628 54.5041 14.1534 53.0127 14.1534Z" fill="white"/>
<path d="M5.93622 21.9319H0V1.98849H5.93622V11.9602L9.44532 9.12365L20.2358 1.98849H28.3944L16.3758 10.4396L28.9793 21.9319H21.1131L11.7555 13.3931L5.93622 17.2238V21.9319Z" fill="white"/>
</svg>
