<svg width="76" height="13" viewBox="0 0 76 13" fill="none" xmlns="http://www.w3.org/2000/svg">
<path d="M71.2481 7.96802H68.6721V12H66.6241V0.304016H71.2481C73.6001 0.304016 75.1201 1.84002 75.1201 4.12802C75.1201 6.38402 73.5841 7.96802 71.2481 7.96802ZM70.8482 2.12802H68.6721V6.14402H70.8161C72.2241 6.14402 72.9762 5.39202 72.9762 4.11202C72.9762 2.83202 72.2082 2.12802 70.8482 2.12802Z" fill="white"/>
<path d="M64.718 6.14401C64.718 9.69601 62.382 12.192 59.022 12.192C55.678 12.192 53.374 9.71201 53.374 6.14401C53.374 2.59201 55.694 0.0960083 59.038 0.0960083C62.382 0.0960083 64.718 2.57601 64.718 6.14401ZM62.558 6.14401C62.558 3.64801 61.182 2.06401 59.038 2.06401C56.894 2.06401 55.518 3.64801 55.518 6.14401C55.518 8.64001 56.894 10.224 59.038 10.224C61.182 10.224 62.558 8.60801 62.558 6.14401Z" fill="white"/>
<path d="M48.4513 7.96802H45.8753V12H43.8273V0.304016H48.4513C50.8033 0.304016 52.3233 1.84002 52.3233 4.12802C52.3233 6.38402 50.7873 7.96802 48.4513 7.96802ZM48.0513 2.12802H45.8753V6.14402H48.0193C49.4273 6.14402 50.1793 5.39202 50.1793 4.11202C50.1793 2.83202 49.4113 2.12802 48.0513 2.12802Z" fill="white"/>
<path d="M32.0808 7.39202L28.1288 0.304016H30.4168L32.7208 4.56002C32.8968 4.88002 33.0088 5.13602 33.1368 5.42402C33.2808 5.13602 33.3448 4.94402 33.5528 4.56002L35.8408 0.304016H38.0648L34.1288 7.39202V12H32.0808V7.39202Z" fill="white"/>
<path d="M22.5723 2.032C20.2523 2.032 18.9243 3.712 18.9243 6.24C18.9243 8.848 20.4283 10.272 22.5883 10.272C24.6203 10.272 25.8523 9.152 25.8523 7.28V7.232H22.3163V5.424H27.7563V12H26.0283L25.9003 10.656C25.2603 11.552 23.9323 12.176 22.3483 12.176C19.0683 12.176 16.7803 9.792 16.7803 6.192C16.7803 2.64 19.1003 0.112 22.6203 0.112C25.2923 0.112 27.3563 1.664 27.6923 4.048H25.5323C25.1643 2.672 23.9803 2.032 22.5723 2.032Z" fill="white"/>
<path d="M10.0566 2.032C7.73665 2.032 6.40865 3.712 6.40865 6.24C6.40865 8.848 7.91265 10.272 10.0726 10.272C12.1046 10.272 13.3366 9.152 13.3366 7.28V7.232H9.80065V5.424H15.2406V12H13.5126L13.3846 10.656C12.7446 11.552 11.4166 12.176 9.83265 12.176C6.55265 12.176 4.26465 9.792 4.26465 6.192C4.26465 2.64 6.58465 0.112 10.1046 0.112C12.7766 0.112 14.8406 1.664 15.1766 4.048H13.0166C12.6486 2.672 11.4646 2.032 10.0566 2.032Z" fill="white"/>
<path d="M2.34402 0.304016V12H0.296021V0.304016H2.34402Z" fill="white"/>
</svg>
