<svg width="67" height="12" viewBox="0 0 67 12" fill="none" xmlns="http://www.w3.org/2000/svg">
<path d="M63.0088 11.168C61.3848 11.168 60.2228 9.922 60.2228 8.186C60.2228 5.89 61.7628 4.112 63.7508 4.112C65.5288 4.112 66.6068 5.47 66.3268 7.206L66.2568 7.64H60.8668C60.8528 7.822 60.8388 8.004 60.8388 8.186C60.8388 9.628 61.7208 10.608 63.0088 10.608C64.0868 10.608 65.0388 10.034 65.3888 9.082H66.0188C65.5708 10.398 64.3948 11.168 63.0088 11.168ZM63.7508 4.672C62.4208 4.672 61.3288 5.694 60.9648 7.136H65.7108C65.9488 5.652 65.1088 4.672 63.7508 4.672Z" fill="white"/>
<path d="M56.9214 4.28H57.9574L58.1954 2.754C58.3914 1.536 59.0214 0.891998 60.0434 0.891998C60.3094 0.891998 60.5614 0.905999 60.7014 0.933999L60.6174 1.466C60.4774 1.466 60.3094 1.452 60.0574 1.452C59.3014 1.452 58.9514 1.816 58.7974 2.754L58.5594 4.28H60.0994L60.0154 4.812H58.4754L57.4954 11H56.8934L57.8734 4.812H56.8374L56.9214 4.28Z" fill="white"/>
<path d="M55.601 2.20799C55.321 2.20799 55.111 1.99799 55.111 1.73199C55.111 1.36799 55.405 1.04599 55.755 1.04599C56.035 1.04599 56.245 1.25599 56.245 1.52199C56.245 1.88599 55.951 2.20799 55.601 2.20799ZM53.907 11L54.971 4.27999H55.573L54.509 11H53.907Z" fill="white"/>
<path d="M49.4788 1.06L48.0088 10.412H52.6568L52.5588 11H47.2808L48.8488 1.06H49.4788Z" fill="white"/>
<path d="M42.9583 4.182L42.8743 4.714H42.3843C41.2083 4.714 40.2283 5.624 40.0323 6.884L39.3743 11H38.7723L39.8363 4.28H40.3543L40.2423 5.47C40.5783 4.658 41.4043 4.112 42.3423 4.112C42.5523 4.112 42.7623 4.14 42.9583 4.182Z" fill="white"/>
<path d="M31.1154 8.116C31.1154 5.918 32.8234 4.112 34.8814 4.112C36.5754 4.112 37.7374 5.358 37.7374 7.164C37.7374 9.362 36.0294 11.168 33.9714 11.168C32.2774 11.168 31.1154 9.922 31.1154 8.116ZM31.7314 8.116C31.7314 9.656 32.6274 10.608 34.0554 10.608C35.7354 10.608 37.1214 9.054 37.1214 7.164C37.1214 5.624 36.2254 4.672 34.7974 4.672C33.1174 4.672 31.7314 6.226 31.7314 8.116Z" fill="white"/>
<path d="M27.814 4.28H28.85L29.088 2.754C29.284 1.536 29.914 0.891998 30.936 0.891998C31.202 0.891998 31.454 0.905999 31.594 0.933999L31.51 1.466C31.37 1.466 31.202 1.452 30.95 1.452C30.194 1.452 29.844 1.816 29.69 2.754L29.452 4.28H30.992L30.908 4.812H29.368L28.388 11H27.786L28.766 4.812H27.73L27.814 4.28Z" fill="white"/>
<path d="M20.9984 11H20.3964L21.3764 4.81201H20.0464L20.1304 4.28001H21.4604L21.7964 2.15201H22.3984L22.0624 4.28001H23.3924L23.3084 4.81201H21.9784L20.9984 11Z" fill="white"/>
<path d="M14.1547 9.25H14.7847C14.7847 10.048 15.4707 10.608 16.4507 10.608C17.5147 10.608 18.2427 10.048 18.2427 9.222C18.2427 8.62 17.9767 8.298 17.2627 8.046L16.1987 7.668C15.2607 7.332 14.7987 6.772 14.7987 5.946C14.7987 4.868 15.7367 4.112 17.0807 4.112C18.4527 4.112 19.2507 4.84 19.2507 6.072H18.6207C18.5787 5.106 18.0887 4.672 17.0527 4.672C16.0727 4.672 15.4147 5.176 15.4147 5.946C15.4147 6.534 15.7227 6.898 16.4227 7.15L17.4727 7.528C18.4527 7.878 18.8587 8.368 18.8587 9.222C18.8587 10.356 17.8507 11.168 16.4507 11.168C15.1067 11.168 14.1547 10.37 14.1547 9.25Z" fill="white"/>
<path d="M12.9716 4.28H13.5736L12.5096 11H12.0336L12.1456 9.656C11.5156 10.664 10.7316 11.168 9.63959 11.168C8.15559 11.168 7.28759 10.062 7.55359 8.368L8.19759 4.28H8.79959L8.16959 8.242C7.91759 9.796 8.49159 10.608 9.70959 10.608C11.1516 10.608 12.1456 9.488 12.4256 7.738L12.9716 4.28Z" fill="white"/>
<path d="M2.92603 1.06L1.45603 10.412H6.10403L6.00603 11H0.728027L2.29603 1.06H2.92603Z" fill="white"/>
</svg>
